# xmcd
#
# Track frame offsets: 
#        150
#        15685
#        30435
#        47715
#        58155
#        71710
#        86830
#        100710
#        115610
#        126315
#        139840
#        151035
#        163760
#        179565
#        199465
#        211540
#        223715
#        239080
#        257645
#        273010
#
# Disc length: 3896 seconds
#
# Revision: 0
# Processed by: cddbd v1.5.2PL0 Copyright (c) Steve Scherf et al.
# Submitted via: ExactAudioCopy v0.99pb5
#
DISCID=220f3614
DTITLE=Édith Piaf - La Vie en Rose [CD2]
DYEAR=2008
DGENRE=Cabaret
TTITLE0=Hymne à l'amour
TTITLE1=Padam... Padam
TTITLE2=Elle a dit
TTITLE3=La valse de l'amour
TTITLE4=Monsieur et madam
TTITLE5=Chante moi
TTITLE6=Le chevalier de Paris
TTITLE7=C'est un gars
TTITLE8=Si, si, si
TTITLE9=Demain (il fera jour)
TTITLE10=Dans les prisons de Nantes
TTITLE11=Pleure pas
TTITLE12=Ding din don
TTITLE13=Mariage
TTITLE14=Le roi a fait battre tambour
TTITLE15=Dany
TTITLE16=L'orgue des amoureux
TTITLE17=Le disque usé
TTITLE18=Les Mômes de la cloche
TTITLE19=Les trois cloches
EXTD=
EXTT0=
EXTT1=
EXTT2=
EXTT3=
EXTT4=
EXTT5=
EXTT6=
EXTT7=
EXTT8=
EXTT9=
EXTT10=
EXTT11=
EXTT12=
EXTT13=
EXTT14=
EXTT15=
EXTT16=
EXTT17=
EXTT18=
EXTT19=
PLAYORDER=
